<?xml version="1.0" encoding="utf-8"?>
<!-- Generator: Adobe Illustrator 26.0.1, SVG Export Plug-In . SVG Version: 6.00 Build 0)  -->
<svg version="1.1" id="Layer_1" xmlns="http://www.w3.org/2000/svg" xmlns:xlink="http://www.w3.org/1999/xlink" x="0px" y="0px"
	 viewBox="0 0 512 512" style="enable-background:new 0 0 512 512;" xml:space="preserve">
<style type="text/css">
	.st0{fill:#018544;}
	.st1{display:none;fill:#018544;}
	.st2{fill:none;stroke:#018544;stroke-width:15;stroke-miterlimit:10;}
</style>
<g>
	<g>
		<path class="st0" d="M207.45,95.1h-31.42v20.14h26.26c2.43,0,4.25,0.55,5.45,1.64c1.2,1.09,1.8,2.55,1.8,4.38
			s-0.61,3.28-1.83,4.35c-1.22,1.07-3.03,1.61-5.42,1.61h-26.26v25.94c0,3.29-0.74,5.74-2.23,7.33c-1.49,1.59-3.39,2.39-5.72,2.39
			c-2.36,0-4.29-0.81-5.77-2.42c-1.49-1.61-2.23-4.05-2.23-7.3V92.57c0-2.29,0.34-4.16,1.02-5.61c0.68-1.45,1.75-2.51,3.2-3.17
			c1.45-0.66,3.3-0.99,5.56-0.99h37.6c2.54,0,4.43,0.56,5.67,1.69c1.24,1.13,1.85,2.6,1.85,4.43c0,1.86-0.62,3.36-1.85,4.48
			C211.88,94.53,209.99,95.1,207.45,95.1z"/>
		<path class="st0" d="M262.56,136.67h-28.68c0.04,3.33,0.71,6.27,2.01,8.81c1.31,2.54,3.04,4.46,5.21,5.75
			c2.17,1.29,4.56,1.93,7.17,1.93c1.75,0,3.36-0.21,4.81-0.62c1.45-0.41,2.85-1.06,4.22-1.93c1.36-0.88,2.61-1.82,3.76-2.82
			c1.15-1,2.63-2.36,4.46-4.08c0.75-0.64,1.83-0.97,3.22-0.97c1.5,0,2.72,0.41,3.65,1.24c0.93,0.82,1.4,1.99,1.4,3.49
			c0,1.33-0.52,2.87-1.56,4.65c-1.04,1.77-2.6,3.47-4.7,5.1c-2.09,1.63-4.73,2.98-7.89,4.06c-3.17,1.07-6.81,1.61-10.93,1.61
			c-9.42,0-16.74-2.69-21.97-8.06c-5.23-5.37-7.84-12.66-7.84-21.86c0-4.33,0.64-8.35,1.93-12.06s3.17-6.88,5.64-9.53
			c2.47-2.65,5.51-4.68,9.13-6.1c3.62-1.41,7.63-2.12,12.03-2.12c5.73,0,10.64,1.21,14.74,3.63c4.1,2.42,7.17,5.54,9.21,9.37
			c2.04,3.83,3.06,7.73,3.06,11.71c0,3.69-1.06,6.08-3.17,7.17C269.36,136.12,266.39,136.67,262.56,136.67z M233.88,128.34h26.59
			c-0.36-5.01-1.71-8.76-4.05-11.25c-2.35-2.49-5.43-3.73-9.27-3.73c-3.65,0-6.65,1.26-9,3.79
			C235.8,119.67,234.38,123.4,233.88,128.34z"/>
		<path class="st0" d="M327.92,136.67h-28.68c0.04,3.33,0.71,6.27,2.01,8.81c1.31,2.54,3.04,4.46,5.21,5.75
			c2.17,1.29,4.56,1.93,7.17,1.93c1.75,0,3.36-0.21,4.81-0.62c1.45-0.41,2.85-1.06,4.22-1.93c1.36-0.88,2.61-1.82,3.76-2.82
			c1.15-1,2.63-2.36,4.46-4.08c0.75-0.64,1.83-0.97,3.22-0.97c1.5,0,2.72,0.41,3.65,1.24c0.93,0.82,1.4,1.99,1.4,3.49
			c0,1.33-0.52,2.87-1.56,4.65c-1.04,1.77-2.6,3.47-4.7,5.1c-2.09,1.63-4.73,2.98-7.89,4.06c-3.17,1.07-6.81,1.61-10.93,1.61
			c-9.42,0-16.74-2.69-21.97-8.06c-5.23-5.37-7.84-12.66-7.84-21.86c0-4.33,0.64-8.35,1.93-12.06s3.17-6.88,5.64-9.53
			c2.47-2.65,5.51-4.68,9.13-6.1c3.62-1.41,7.63-2.12,12.03-2.12c5.73,0,10.64,1.21,14.74,3.63c4.1,2.42,7.17,5.54,9.21,9.37
			c2.04,3.83,3.06,7.73,3.06,11.71c0,3.69-1.06,6.08-3.17,7.17C334.73,136.12,331.75,136.67,327.92,136.67z M299.24,128.34h26.59
			c-0.36-5.01-1.71-8.76-4.05-11.25c-2.35-2.49-5.43-3.73-9.27-3.73c-3.65,0-6.65,1.26-9,3.79
			C301.17,119.67,299.74,123.4,299.24,128.34z"/>
		<path class="st0" d="M399.57,143.71c0,4.05-0.99,7.51-2.95,10.39c-1.97,2.88-4.88,5.07-8.73,6.55c-3.85,1.49-8.53,2.23-14.05,2.23
			c-5.26,0-9.78-0.81-13.54-2.42s-6.54-3.63-8.33-6.04c-1.79-2.42-2.69-4.84-2.69-7.28c0-1.61,0.57-2.99,1.72-4.14
			c1.15-1.15,2.6-1.72,4.35-1.72c1.54,0,2.72,0.38,3.54,1.13c0.82,0.75,1.61,1.81,2.36,3.17c1.5,2.61,3.3,4.57,5.4,5.85
			c2.1,1.29,4.95,1.93,8.57,1.93c2.94,0,5.34-0.65,7.22-1.96c1.88-1.31,2.82-2.8,2.82-4.48c0-2.58-0.98-4.46-2.93-5.64
			c-1.95-1.18-5.17-2.31-9.64-3.38c-5.05-1.25-9.16-2.57-12.33-3.95c-3.17-1.38-5.7-3.2-7.6-5.45c-1.9-2.26-2.85-5.03-2.85-8.33
			c0-2.94,0.88-5.71,2.63-8.33c1.75-2.61,4.34-4.7,7.76-6.26c3.42-1.56,7.55-2.34,12.38-2.34c3.79,0,7.21,0.39,10.23,1.18
			c3.03,0.79,5.55,1.84,7.57,3.17c2.02,1.33,3.56,2.79,4.62,4.4c1.06,1.61,1.58,3.19,1.58,4.73c0,1.68-0.56,3.06-1.69,4.14
			c-1.13,1.07-2.73,1.61-4.81,1.61c-1.5,0-2.78-0.43-3.84-1.29c-1.06-0.86-2.27-2.15-3.63-3.87c-1.11-1.43-2.42-2.58-3.92-3.44
			s-3.54-1.29-6.12-1.29c-2.65,0-4.85,0.56-6.61,1.69c-1.75,1.13-2.63,2.53-2.63,4.22c0,1.54,0.64,2.8,1.93,3.79
			c1.29,0.99,3.03,1.8,5.21,2.44c2.18,0.64,5.19,1.43,9.02,2.36c4.55,1.11,8.26,2.44,11.15,3.97c2.88,1.54,5.07,3.36,6.55,5.45
			C398.83,138.63,399.57,141.02,399.57,143.71z"/>
	</g>
	<g>
		<path class="st0" d="M293.62,256.29h-136c-3.87,0-7-3.13-7-7s3.13-7,7-7h136c3.87,0,7,3.13,7,7S297.49,256.29,293.62,256.29z"/>
	</g>
	<g>
		<path class="st0" d="M372.62,256.29h-45c-3.87,0-7-3.13-7-7s3.13-7,7-7h45c3.87,0,7,3.13,7,7S376.49,256.29,372.62,256.29z"/>
	</g>
	<g>
		<path class="st0" d="M293.62,310.29h-136c-3.87,0-7-3.13-7-7s3.13-7,7-7h136c3.87,0,7,3.13,7,7S297.49,310.29,293.62,310.29z"/>
	</g>
	<g>
		<path class="st0" d="M372.62,310.29h-45c-3.87,0-7-3.13-7-7s3.13-7,7-7h45c3.87,0,7,3.13,7,7S376.49,310.29,372.62,310.29z"/>
	</g>
	<g>
		<path class="st0" d="M293.62,364.29h-136c-3.87,0-7-3.13-7-7s3.13-7,7-7h136c3.87,0,7,3.13,7,7S297.49,364.29,293.62,364.29z"/>
	</g>
	<g>
		<path class="st0" d="M372.62,364.29h-45c-3.87,0-7-3.13-7-7s3.13-7,7-7h45c3.87,0,7,3.13,7,7S376.49,364.29,372.62,364.29z"/>
	</g>
	<g>
		<path class="st0" d="M293.62,418.29h-136c-3.87,0-7-3.13-7-7s3.13-7,7-7h136c3.87,0,7,3.13,7,7S297.49,418.29,293.62,418.29z"/>
	</g>
	<g>
		<path class="st1" d="M394.45,420.14c-4.05,1.33-6.26,5.7-4.93,9.75c1.33,4.05,5.7,6.26,9.75,4.93c0.07-0.02,0.14-0.04,0.2-0.06
			c0.06-0.02,0.12-0.05,0.19-0.07c0.87-0.29,1.75-0.49,2.64-0.65v-12.1c-0.07-0.06-0.16-0.11-0.23-0.17
			C400.01,419.9,397.09,419.27,394.45,420.14z"/>
		<g>
			<path class="st1" d="M377.45,26.9H87.59c-0.05,0-0.1,0-0.16,0c0.05,0.06,0.09,0.12,0.14,0.19c0.46,0.58,0.9,1.17,1.31,1.79
				c0.01,0.02,0.02,0.04,0.04,0.06c0.4,0.6,0.77,1.22,1.13,1.85c0.06,0.1,0.12,0.2,0.17,0.3c0.34,0.62,0.65,1.25,0.94,1.89
				c0.06,0.12,0.11,0.25,0.17,0.38c0.29,0.65,0.55,1.31,0.79,1.98c0.03,0.08,0.05,0.17,0.08,0.25c0.23,0.66,0.43,1.33,0.61,2.01
				c0.02,0.07,0.04,0.14,0.06,0.21c0.18,0.69,0.32,1.4,0.45,2.11c0.02,0.14,0.05,0.27,0.07,0.41c0.11,0.7,0.2,1.41,0.27,2.12
				c0.01,0.11,0.02,0.21,0.02,0.32c0.05,0.73,0.1,1.93,0.1,2.67l0,357.92v75.82v0c0,12.12,9.83,21.95,21.95,21.95h258.88
				c-18.52-7.86-32.95-24.07-38.03-44.85c-7.99-32.68,10.57-66.48,42.39-77.39c6.87-2.36,14.02-3.55,21.22-3.55h0l0,2.5c0,0,0,0,0,0
				v-2.5c0.7,0,1.4,0.02,2.1,0.04V51.74C402.3,38.02,391.18,26.9,377.45,26.9z"/>
		</g>
		<g>
			<path class="st0" d="M88.91,28.92c-0.01-0.02-0.02-0.04-0.04-0.06C88.89,28.89,88.9,28.91,88.91,28.92z"/>
		</g>
		<g>
			<path class="st0" d="M90.21,31.08c-0.06-0.1-0.11-0.2-0.17-0.3C90.1,30.88,90.16,30.98,90.21,31.08z"/>
		</g>
		<path class="st0" d="M420.3,455.47c0.35-5.26-1.37-10.34-4.84-14.3c-0.17-0.19-0.36-0.37-0.54-0.55c-2.8-2.96-6.36-4.94-10.3-5.75
			c-0.88-0.18-1.78-0.33-2.69-0.39c-0.07,0-0.13,0-0.2,0c-0.07-0.01-0.14-0.02-0.21-0.02c-4.26-0.28-7.48-3.97-7.19-8.22
			c0.28-4.25,3.97-7.48,8.22-7.19c2.78,0.18,5.25,1.86,6.45,4.37c0.04,0.09,0.1,0.16,0.15,0.24c1.52,2.8,4.96,3.96,7.86,2.56
			c2.99-1.44,4.24-5.02,2.81-8.01c-1.34-2.78-3.29-5.16-5.64-6.99c-1.41-1.1-2.96-2-4.61-2.69l0.31-4.58
			c0.22-3.31-2.28-6.17-5.59-6.39c-3.31-0.22-6.17,2.28-6.39,5.59l-0.29,4.39c-8.25,1.91-14.66,9.03-15.25,17.9
			c-0.35,5.26,1.37,10.34,4.84,14.3c2.07,2.36,4.61,4.16,7.44,5.3c1.7,0.68,3.5,1.12,5.36,1.31c0.25,0.03,0.49,0.06,0.74,0.08
			c0.07,0,0.14,0,0.21,0c0.07,0.01,0.13,0.02,0.2,0.02c2.06,0.14,3.94,1.07,5.3,2.62c1.36,1.55,2.03,3.54,1.89,5.6
			c-0.14,2.06-1.07,3.94-2.62,5.3c-1.55,1.36-3.54,2.03-5.6,1.89c-2.08-0.14-3.98-1.11-5.32-2.65c-0.45-0.51-0.83-1.09-1.14-1.72
			c-1.44-2.99-5.02-4.24-8.01-2.81c-2.99,1.44-4.24,5.02-2.81,8.01c1.63,3.39,4.18,6.19,7.26,8.13c1,0.63,2.05,1.17,3.15,1.62
			c0.01,0,0.02,0.01,0.02,0.01l-0.3,4.51c-0.18,2.65,1.4,5.02,3.74,5.96c0.2,0.08,0.42,0.14,0.63,0.2c0.39,0.11,0.8,0.2,1.22,0.22
			c3.31,0.22,6.17-2.28,6.39-5.59l0.3-4.44c3.06-0.73,5.93-2.2,8.36-4.33C417.57,465.53,419.95,460.72,420.3,455.47z"/>
		<g>
			<path class="st0" d="M381.37,383.33c-31.69,10.41-49.01,44.66-38.61,76.35c8.36,25.45,32.09,41.63,57.53,41.63
				c6.24,0,12.58-0.97,18.83-3.02c15.35-5.04,27.82-15.76,35.12-30.18c7.29-14.42,8.53-30.82,3.49-46.17
				c-8.36-25.45-32.09-41.63-57.53-41.63C393.95,380.31,387.61,381.28,381.37,383.33z M446.32,425.68
				c8.34,25.41-5.54,52.87-30.95,61.21c-5.01,1.64-10.09,2.42-15.09,2.42c-20.39,0-39.42-12.97-46.12-33.38
				c-8.34-25.41,5.54-52.87,30.95-61.21c5.01-1.64,10.09-2.42,15.09-2.42C420.59,392.31,439.62,405.28,446.32,425.68z"/>
		</g>
		<g>
			<path class="st0" d="M400.2,380.31"/>
		</g>
		<g>
			<line class="st0" x1="400.2" y1="377.81" x2="400.2" y2="377.81"/>
		</g>
		<line class="st2" x1="64" y1="433" x2="64" y2="433"/>
		<g>
			<g>
				<path class="st0" d="M371.79,30.5L89.55,28.03C89.2,28.02,88.85,28,88.5,28c-0.17,0-0.34,0.01-0.51,0.01L86.57,28
					c-0.02,0-0.04,0-0.07,0c-0.56,0-1.1,0.07-1.62,0.18C66.45,30,52,45.6,52,64.5v359c0,20.13,16.37,36.5,36.5,36.5
					c4.14,0,7.5-3.36,7.5-7.5s-3.36-7.5-7.5-7.5c-11.85,0-21.5-9.64-21.5-21.5v-359c0-11.75,9.49-21.32,21.2-21.48l0.72,0.01
					C100.58,43.25,110,52.79,110,64.5v359c0,4.14,3.36,7.5,7.5,7.5s7.5-3.36,7.5-7.5v-359c0-7.91-2.54-15.24-6.83-21.22l253.56,2.22
					c21.38,0,38.77,17.39,38.77,38.77V371.5c0,4.14,3.36,7.5,7.5,7.5s7.5-3.36,7.5-7.5V84.27C425.5,54.62,401.38,30.5,371.79,30.5z"
					/>
			</g>
		</g>
	</g>
</g>
</svg>
