<?xml version="1.0" encoding="utf-8"?>
<!-- Generator: Adobe Illustrator 26.0.1, SVG Export Plug-In . SVG Version: 6.00 Build 0)  -->
<svg version="1.1" id="Layer_1" xmlns="http://www.w3.org/2000/svg" xmlns:xlink="http://www.w3.org/1999/xlink" x="0px" y="0px"
	 viewBox="0 0 512 512" style="enable-background:new 0 0 512 512;" xml:space="preserve">
<style type="text/css">
	.st0{fill:#018544;}
	.st1{fill:#018544;stroke:#018544;stroke-width:15.281;stroke-miterlimit:10;}
</style>
<g>
	<g>
		<g>
			<path class="st0" d="M424.27,506.5H120.75c-14.72,0-26.7-11.98-26.7-26.7V68.22c0-14.72,11.98-26.7,26.7-26.7h86.33V56.8h-86.33
				c-6.3,0-11.42,5.12-11.42,11.42V479.8c0,6.3,5.12,11.42,11.42,11.42h303.52c6.3,0,11.42-5.12,11.42-11.42V68.22
				c0-6.3-5.12-11.42-11.42-11.42h-86.19V41.52h86.19c14.72,0,26.7,11.98,26.7,26.7V479.8C450.97,494.52,439,506.5,424.27,506.5z"/>
			<path class="st0" d="M424.27,507H120.75c-15,0-27.2-12.2-27.2-27.2V68.22c0-15,12.2-27.2,27.2-27.2h86.83V57.3h-86.83
				c-6.02,0-10.92,4.9-10.92,10.92V479.8c0,6.02,4.9,10.92,10.92,10.92h303.52c6.02,0,10.92-4.9,10.92-10.92V68.22
				c0-6.02-4.9-10.92-10.92-10.92h-86.68V41.02h86.68c15,0,27.2,12.2,27.2,27.2V479.8C451.47,494.8,439.27,507,424.27,507z
				 M120.75,42.02c-14.45,0-26.2,11.75-26.2,26.2V479.8c0,14.45,11.75,26.2,26.2,26.2h303.52c14.45,0,26.2-11.75,26.2-26.2V68.22
				c0-14.45-11.75-26.2-26.2-26.2h-85.68V56.3h85.68c6.57,0,11.92,5.35,11.92,11.92V479.8c0,6.57-5.35,11.92-11.92,11.92H120.75
				c-6.57,0-11.92-5.35-11.92-11.92V68.22c0-6.57,5.35-11.92,11.92-11.92h85.83V42.02H120.75z"/>
		</g>
	</g>
	<g>
		<g>
			<path class="st1" d="M272.51,49.16"/>
		</g>
	</g>
	<g>
		<g>
			<path class="st1" d="M272.51,49.16"/>
		</g>
	</g>
	<g>
		<g>
			<g>
				<path class="st0" d="M328.18,70.99H216.85c-11.75,0-21.28-9.53-21.28-21.28v0c0-11.75,9.53-21.28,21.28-21.28h21.57
					c4.22,0,7.64,3.42,7.64,7.64v0c0,4.22-3.42,7.64-7.64,7.64h-21.57c-3.32,0-6,2.69-6,6v0c0,3.32,2.69,6,6,6h111.33
					c3.32,0,6-2.69,6-6v0c0-3.3-2.7-6-6-6h-21.59c-4.22,0-7.64-3.42-7.64-7.64v0c0-4.22,3.42-7.64,7.64-7.64h21.59
					c11.75,0,21.28,9.53,21.28,21.28v0C349.46,61.46,339.93,70.99,328.18,70.99z"/>
				<path class="st0" d="M328.18,71.49H216.85c-12.01,0-21.78-9.77-21.78-21.78c0-12.01,9.77-21.78,21.78-21.78h21.57
					c4.49,0,8.14,3.65,8.14,8.14s-3.65,8.14-8.14,8.14h-21.57c-3.03,0-5.5,2.47-5.5,5.5c0,3.03,2.47,5.5,5.5,5.5h111.33
					c3.03,0,5.5-2.47,5.5-5.5c0-3.03-2.47-5.5-5.5-5.5h-21.59c-4.49,0-8.14-3.65-8.14-8.14s3.65-8.14,8.14-8.14h21.59
					c12.01,0,21.78,9.77,21.78,21.78C349.96,61.72,340.19,71.49,328.18,71.49z M216.85,28.92c-11.46,0-20.78,9.32-20.78,20.78
					c0,11.46,9.32,20.78,20.78,20.78h111.33c11.46,0,20.78-9.32,20.78-20.78c0-11.46-9.32-20.78-20.78-20.78h-21.59
					c-3.94,0-7.14,3.2-7.14,7.14s3.2,7.14,7.14,7.14h21.59c3.59,0,6.5,2.92,6.5,6.5s-2.92,6.5-6.5,6.5H216.85
					c-3.59,0-6.5-2.92-6.5-6.5s2.92-6.5,6.5-6.5h21.57c3.94,0,7.14-3.2,7.14-7.14s-3.2-7.14-7.14-7.14H216.85z"/>
			</g>
		</g>
		<g>
			<g>
				<path class="st1" d="M272.51,36.06"/>
			</g>
		</g>
		<g>
			<g>
				<path class="st1" d="M240.48,36.06"/>
			</g>
		</g>
		<g>
			<g>
				<path class="st0" d="M307.44,36.65L307.44,36.65c-4.22,0-7.64-3.42-7.64-7.64v-0.58c0-4.22-3.42-7.64-7.64-7.64h-41.87
					c-2.8,0-5.06,2.27-5.06,5.06v3.16c0,4.22-3.42,7.64-7.64,7.64h-2.58c-2.8,0-5.06-2.27-5.06-5.06v-8.51
					c0-9.71,7.87-17.58,17.58-17.58h49.98c9.71,0,17.58,7.87,17.58,17.58v5.93C315.08,33.23,311.66,36.65,307.44,36.65z"/>
				<path class="st0" d="M307.44,37.15c-4.49,0-8.14-3.65-8.14-8.14v-0.58c0-3.94-3.2-7.14-7.14-7.14h-41.87
					c-2.52,0-4.56,2.05-4.56,4.56v3.16c0,4.49-3.65,8.14-8.14,8.14h-2.58c-3.07,0-5.56-2.5-5.56-5.56v-8.51
					c0-9.97,8.11-18.08,18.08-18.08h49.99c9.97,0,18.08,8.11,18.08,18.08v5.93C315.58,33.49,311.93,37.15,307.44,37.15z
					 M250.29,20.28h41.87c4.49,0,8.14,3.65,8.14,8.14v0.58c0,3.94,3.2,7.14,7.14,7.14s7.14-3.2,7.14-7.14v-5.93
					c0-9.42-7.66-17.08-17.08-17.08h-49.99c-9.42,0-17.08,7.66-17.08,17.08v8.51c0,2.52,2.05,4.56,4.56,4.56h2.58
					c3.94,0,7.14-3.2,7.14-7.14v-3.16C244.73,22.78,247.22,20.28,250.29,20.28z"/>
			</g>
		</g>
	</g>
</g>
<g>
	<path class="st0" d="M354.38,419.25c-15.89,0-28.82-12.93-28.82-28.82c0-15.89,12.93-28.82,28.82-28.82
		c15.89,0,28.82,12.93,28.82,28.82C383.19,406.32,370.27,419.25,354.38,419.25z M354.38,371.61c-10.38,0-18.82,8.44-18.82,18.82
		s8.44,18.82,18.82,18.82s18.82-8.44,18.82-18.82S364.75,371.61,354.38,371.61z"/>
</g>
<g>
	<path class="st0" d="M354.38,352c3.16,0,6.31,1.38,8.45,4.15v0c2.04,2.64,5.17,4.15,8.45,4.15c0.45,0,0.9-0.03,1.36-0.09l0,0
		c0.47-0.06,0.93-0.09,1.38-0.09c6.32,0,11.4,5.57,10.57,12.04v0c-0.48,3.76,1.07,7.49,4.06,9.81c5.53,4.28,5.53,12.63,0,16.91
		c-3,2.32-4.54,6.05-4.06,9.81v0c0.83,6.47-4.26,12.04-10.57,12.04c-0.46,0-0.92-0.03-1.38-0.09h0c-0.45-0.06-0.91-0.09-1.36-0.09
		c-3.28,0-6.41,1.51-8.45,4.15c-2.14,2.77-5.3,4.15-8.45,4.15s-6.31-1.38-8.45-4.15c-2.04-2.64-5.17-4.15-8.45-4.15
		c-0.45,0-0.9,0.03-1.36,0.09h0c-0.47,0.06-0.93,0.09-1.38,0.09c-6.32,0-11.4-5.57-10.57-12.04l0,0c0.48-3.76-1.07-7.49-4.06-9.81h0
		c-5.53-4.28-5.53-12.63,0-16.91h0c3-2.32,4.54-6.05,4.06-9.81l0,0c-0.83-6.47,4.26-12.04,10.57-12.04c0.46,0,0.92,0.03,1.38,0.09
		l0,0c0.45,0.06,0.91,0.09,1.36,0.09c3.28,0,6.41-1.51,8.45-4.15v0C348.06,353.38,351.22,352,354.38,352 M354.38,342
		c-6.45,0-12.42,2.93-16.36,8.03c-0.13,0.17-0.33,0.27-0.54,0.27c-0.03,0-0.06,0-0.09-0.01c-0.88-0.11-1.77-0.17-2.65-0.17
		c-5.92,0-11.57,2.56-15.51,7.03c-3.92,4.46-5.74,10.39-4.99,16.29c0.03,0.24-0.07,0.48-0.26,0.63c-5.1,3.95-8.03,9.91-8.03,16.36
		c0,6.45,2.93,12.42,8.03,16.36c0.19,0.15,0.29,0.39,0.26,0.63c-0.75,5.89,1.06,11.83,4.99,16.29c3.93,4.46,9.58,7.03,15.51,7.03
		c0.88,0,1.77-0.06,2.65-0.17c0.03,0,0.06-0.01,0.09-0.01c0.21,0,0.41,0.1,0.54,0.27c3.95,5.1,9.91,8.03,16.36,8.03
		c6.45,0,12.42-2.93,16.36-8.03c0.13-0.17,0.33-0.27,0.54-0.27c0.03,0,0.06,0,0.09,0.01c0.88,0.11,1.77,0.17,2.65,0.17
		c5.92,0,11.57-2.56,15.51-7.03c3.92-4.46,5.74-10.39,4.99-16.29c-0.03-0.24,0.07-0.48,0.26-0.63c5.1-3.95,8.03-9.91,8.03-16.36
		s-2.93-12.42-8.03-16.36c-0.19-0.15-0.29-0.39-0.26-0.63c0.75-5.89-1.06-11.83-4.99-16.29c-3.93-4.46-9.58-7.03-15.51-7.03
		c-0.88,0-1.77,0.06-2.65,0.17c-0.03,0-0.06,0.01-0.09,0.01c-0.21,0-0.41-0.1-0.54-0.27C366.79,344.93,360.83,342,354.38,342
		L354.38,342z"/>
</g>
<g>
	<path class="st0" d="M342.47,465.55c-1.97,0-3.77-1.16-4.58-2.99l-5.29-12.03l-15.31,4.25c-1.93,0.54-3.99-0.13-5.24-1.7
		c-1.25-1.57-1.45-3.73-0.5-5.49l15.16-28.19l8.81,4.73l-9.61,17.87l8.2-2.28c2.39-0.67,4.91,0.53,5.92,2.8l1.56,3.55l4.77-15.96
		l9.58,2.86l-8.66,28.99c-0.6,2.01-2.39,3.43-4.48,3.56C342.67,465.55,342.57,465.55,342.47,465.55z"/>
</g>
<g>
	<path class="st0" d="M369.53,462.85c-0.1,0-0.21,0-0.31-0.01c-2.09-0.13-3.88-1.55-4.48-3.56l-8.66-28.99l9.58-2.86l4.77,15.96
		l1.56-3.55c1-2.27,3.52-3.47,5.92-2.8l8.2,2.28l-9.61-17.87l8.81-4.73l15.16,28.19c0.95,1.76,0.75,3.92-0.5,5.49
		c-1.25,1.56-3.32,2.23-5.24,1.7l-15.31-4.25l-5.29,12.03C373.31,461.68,371.5,462.85,369.53,462.85z"/>
</g>
<g>
	<g>
		<path class="st0" d="M286.87,194h-150c-3.87,0-7-3.13-7-7s3.13-7,7-7h150c3.87,0,7,3.13,7,7S290.73,194,286.87,194z"/>
	</g>
	<g>
		<path class="st0" d="M286.87,248h-150c-3.87,0-7-3.13-7-7s3.13-7,7-7h150c3.87,0,7,3.13,7,7S290.73,248,286.87,248z"/>
	</g>
	<g>
		<path class="st0" d="M286.87,302h-150c-3.87,0-7-3.13-7-7s3.13-7,7-7h150c3.87,0,7,3.13,7,7S290.73,302,286.87,302z"/>
	</g>
	<g>
		<path class="st0" d="M359.74,208.7L359.74,208.7c-1.86,0-3.64-0.74-4.95-2.05l-14.36-14.36c-2.73-2.73-2.73-7.17,0-9.9
			s7.17-2.73,9.9,0l9.41,9.41l24.45-24.44c2.73-2.73,7.17-2.73,9.9,0c2.73,2.73,2.73,7.17,0,9.9l-29.4,29.39
			C363.37,207.96,361.59,208.7,359.74,208.7z"/>
	</g>
	<g>
		<path class="st0" d="M359.74,316.7c-1.79,0-3.58-0.68-4.95-2.05l-14.36-14.36c-2.73-2.73-2.73-7.17,0-9.9
			c2.73-2.73,7.17-2.73,9.9,0l9.41,9.41l24.45-24.45c2.73-2.73,7.17-2.73,9.9,0c2.73,2.73,2.73,7.17,0,9.9l-29.4,29.39
			C363.32,316.01,361.53,316.7,359.74,316.7z"/>
	</g>
	<g>
		<g>
			<path class="st0" d="M383.79,264.54c-1.79,0-3.58-0.68-4.95-2.05l-33.07-33.07c-2.73-2.73-2.73-7.17,0-9.9
				c2.74-2.73,7.17-2.73,9.9,0l33.07,33.07c2.73,2.73,2.73,7.17,0,9.9C387.37,263.85,385.58,264.54,383.79,264.54z"/>
		</g>
		<g>
			<path class="st0" d="M350.72,264.54c-1.79,0-3.58-0.68-4.95-2.05c-2.73-2.73-2.73-7.17,0-9.9l33.07-33.07
				c2.73-2.73,7.17-2.73,9.9,0c2.73,2.73,2.73,7.17,0,9.9l-33.07,33.07C354.3,263.85,352.51,264.54,350.72,264.54z"/>
		</g>
	</g>
</g>
</svg>
